<mxfile host="app.diagrams.net" modified="2024-04-21T09:26:38.464Z" agent="Mozilla/5.0 (Windows NT 10.0; Win64; x64) AppleWebKit/537.36 (KHTML, like Gecko) Chrome/124.0.0.0 Safari/537.36 Edg/124.0.0.0" etag="yeZAmrzQ8mpLBeaXTfd4" version="24.2.7" type="device">
  <diagram name="StrÃ¡nka-1" id="LfHyqBBUtkDqjg4pTFUG">
    <mxGraphModel dx="1188" dy="654" grid="1" gridSize="10" guides="1" tooltips="1" connect="1" arrows="1" fold="1" page="1" pageScale="1" pageWidth="600" pageHeight="400" math="0" shadow="0">
      <root>
        <mxCell id="0" />
        <mxCell id="1" parent="0" />
        <mxCell id="Z2LzsEI6v00rcgcjW4Fa-3" value="" style="verticalLabelPosition=bottom;shadow=0;dashed=0;align=center;html=1;verticalAlign=top;strokeWidth=1;shape=ellipse;perimeter=ellipsePerimeter;" parent="1" vertex="1">
          <mxGeometry x="62" y="205" width="15" height="15" as="geometry" />
        </mxCell>
        <mxCell id="Z2LzsEI6v00rcgcjW4Fa-4" value="" style="verticalLabelPosition=bottom;shadow=0;dashed=0;align=center;html=1;verticalAlign=top;shape=mxgraph.electrical.transistors.npn_transistor_1;" parent="1" vertex="1">
          <mxGeometry x="222" y="72.5" width="57" height="60" as="geometry" />
        </mxCell>
        <mxCell id="Z2LzsEI6v00rcgcjW4Fa-5" value="" style="pointerEvents=1;verticalLabelPosition=bottom;shadow=0;dashed=0;align=center;html=1;verticalAlign=top;shape=mxgraph.electrical.resistors.resistor_1;direction=south;" parent="1" vertex="1">
          <mxGeometry x="294" y="310" width="10" height="50" as="geometry" />
        </mxCell>
        <mxCell id="Z2LzsEI6v00rcgcjW4Fa-6" value="" style="verticalLabelPosition=bottom;shadow=0;dashed=0;align=center;html=1;verticalAlign=top;shape=mxgraph.electrical.logic_gates.logic_gate;operation=and;" parent="1" vertex="1">
          <mxGeometry x="135" y="82.5" width="66.67" height="40" as="geometry" />
        </mxCell>
        <mxCell id="Z2LzsEI6v00rcgcjW4Fa-8" value="" style="verticalLabelPosition=bottom;shadow=0;dashed=0;align=center;html=1;verticalAlign=top;shape=mxgraph.electrical.logic_gates.logic_gate;operation=and;" parent="1" vertex="1">
          <mxGeometry x="135" y="202.5" width="66.67" height="40" as="geometry" />
        </mxCell>
        <mxCell id="Z2LzsEI6v00rcgcjW4Fa-11" value="" style="verticalLabelPosition=bottom;shadow=0;dashed=0;align=center;html=1;verticalAlign=top;shape=mxgraph.electrical.transistors.npn_transistor_1;" parent="1" vertex="1">
          <mxGeometry x="222" y="192.5" width="57" height="60" as="geometry" />
        </mxCell>
        <mxCell id="Z2LzsEI6v00rcgcjW4Fa-15" value="" style="verticalLabelPosition=bottom;shadow=0;dashed=0;align=center;html=1;verticalAlign=top;strokeWidth=1;shape=ellipse;perimeter=ellipsePerimeter;" parent="1" vertex="1">
          <mxGeometry x="524" y="205" width="15" height="15" as="geometry" />
        </mxCell>
        <mxCell id="Z2LzsEI6v00rcgcjW4Fa-16" value="" style="verticalLabelPosition=bottom;shadow=0;dashed=0;align=center;html=1;verticalAlign=top;strokeWidth=1;shape=ellipse;perimeter=ellipsePerimeter;" parent="1" vertex="1">
          <mxGeometry x="62" y="295" width="15" height="15" as="geometry" />
        </mxCell>
        <mxCell id="Z2LzsEI6v00rcgcjW4Fa-17" value="In1" style="text;html=1;strokeColor=none;fillColor=none;align=center;verticalAlign=middle;whiteSpace=wrap;rounded=0;fontSize=14;" parent="1" vertex="1">
          <mxGeometry x="27" y="202.5" width="35" height="20" as="geometry" />
        </mxCell>
        <mxCell id="Z2LzsEI6v00rcgcjW4Fa-18" value="&lt;font style=&quot;font-size: 14px;&quot;&gt;EnA&lt;/font&gt;" style="text;html=1;strokeColor=none;fillColor=none;align=center;verticalAlign=middle;whiteSpace=wrap;rounded=0;fontSize=14;" parent="1" vertex="1">
          <mxGeometry x="27" y="292.5" width="35" height="20" as="geometry" />
        </mxCell>
        <mxCell id="Z2LzsEI6v00rcgcjW4Fa-19" value="In2" style="text;html=1;strokeColor=none;fillColor=none;align=center;verticalAlign=middle;whiteSpace=wrap;rounded=0;fontSize=14;" parent="1" vertex="1">
          <mxGeometry x="539" y="202.5" width="35" height="20" as="geometry" />
        </mxCell>
        <mxCell id="Z2LzsEI6v00rcgcjW4Fa-20" value="" style="endArrow=none;html=1;rounded=0;entryX=0.1;entryY=0.5;entryDx=0;entryDy=0;entryPerimeter=0;exitX=1;exitY=0.5;exitDx=0;exitDy=0;" parent="1" source="Z2LzsEI6v00rcgcjW4Fa-3" target="Z2LzsEI6v00rcgcjW4Fa-21" edge="1">
          <mxGeometry width="50" height="50" relative="1" as="geometry">
            <mxPoint x="42" y="212.5" as="sourcePoint" />
            <mxPoint x="72" y="242.5" as="targetPoint" />
          </mxGeometry>
        </mxCell>
        <mxCell id="Z2LzsEI6v00rcgcjW4Fa-21" value="" style="verticalLabelPosition=bottom;shadow=0;dashed=0;align=center;html=1;verticalAlign=top;shape=mxgraph.electrical.logic_gates.inverting_contact;" parent="1" vertex="1">
          <mxGeometry x="125" y="207.5" width="10" height="10" as="geometry" />
        </mxCell>
        <mxCell id="Z2LzsEI6v00rcgcjW4Fa-22" value="" style="endArrow=none;html=1;rounded=0;entryX=0;entryY=0.25;entryDx=0;entryDy=0;entryPerimeter=0;" parent="1" target="Z2LzsEI6v00rcgcjW4Fa-6" edge="1">
          <mxGeometry width="50" height="50" relative="1" as="geometry">
            <mxPoint x="92" y="212.5" as="sourcePoint" />
            <mxPoint x="122" y="242.5" as="targetPoint" />
            <Array as="points">
              <mxPoint x="92" y="92.5" />
            </Array>
          </mxGeometry>
        </mxCell>
        <mxCell id="Z2LzsEI6v00rcgcjW4Fa-23" value="" style="endArrow=none;html=1;rounded=0;entryX=0;entryY=0.75;entryDx=0;entryDy=0;entryPerimeter=0;" parent="1" target="Z2LzsEI6v00rcgcjW4Fa-6" edge="1">
          <mxGeometry width="50" height="50" relative="1" as="geometry">
            <mxPoint x="112" y="302.5" as="sourcePoint" />
            <mxPoint x="122" y="122.5" as="targetPoint" />
            <Array as="points">
              <mxPoint x="112" y="112.5" />
            </Array>
          </mxGeometry>
        </mxCell>
        <mxCell id="Z2LzsEI6v00rcgcjW4Fa-24" value="" style="endArrow=none;html=1;rounded=0;exitX=1;exitY=0.5;exitDx=0;exitDy=0;" parent="1" source="Z2LzsEI6v00rcgcjW4Fa-16" edge="1">
          <mxGeometry width="50" height="50" relative="1" as="geometry">
            <mxPoint x="49" y="332.5" as="sourcePoint" />
            <mxPoint x="489" y="302.5" as="targetPoint" />
          </mxGeometry>
        </mxCell>
        <mxCell id="Z2LzsEI6v00rcgcjW4Fa-25" value="" style="endArrow=none;html=1;rounded=0;entryX=0;entryY=0.75;entryDx=0;entryDy=0;entryPerimeter=0;" parent="1" target="Z2LzsEI6v00rcgcjW4Fa-8" edge="1">
          <mxGeometry width="50" height="50" relative="1" as="geometry">
            <mxPoint x="112" y="232.5" as="sourcePoint" />
            <mxPoint x="92" y="232.5" as="targetPoint" />
          </mxGeometry>
        </mxCell>
        <mxCell id="Z2LzsEI6v00rcgcjW4Fa-26" value="" style="endArrow=none;html=1;rounded=0;entryX=0;entryY=0.5;entryDx=0;entryDy=0;entryPerimeter=0;exitX=1;exitY=0.5;exitDx=0;exitDy=0;exitPerimeter=0;" parent="1" source="Z2LzsEI6v00rcgcjW4Fa-6" target="Z2LzsEI6v00rcgcjW4Fa-4" edge="1">
          <mxGeometry width="50" height="50" relative="1" as="geometry">
            <mxPoint x="202" y="132.5" as="sourcePoint" />
            <mxPoint x="242" y="142.5" as="targetPoint" />
          </mxGeometry>
        </mxCell>
        <mxCell id="Z2LzsEI6v00rcgcjW4Fa-27" value="" style="endArrow=none;html=1;rounded=0;entryX=0;entryY=0.5;entryDx=0;entryDy=0;entryPerimeter=0;exitX=1;exitY=0.5;exitDx=0;exitDy=0;exitPerimeter=0;" parent="1" source="Z2LzsEI6v00rcgcjW4Fa-8" target="Z2LzsEI6v00rcgcjW4Fa-11" edge="1">
          <mxGeometry width="50" height="50" relative="1" as="geometry">
            <mxPoint x="192" y="182.5" as="sourcePoint" />
            <mxPoint x="213" y="182.5" as="targetPoint" />
          </mxGeometry>
        </mxCell>
        <mxCell id="Z2LzsEI6v00rcgcjW4Fa-44" value="" style="verticalLabelPosition=bottom;shadow=0;dashed=0;align=center;html=1;verticalAlign=top;shape=mxgraph.electrical.transistors.npn_transistor_1;flipH=1;" parent="1" vertex="1">
          <mxGeometry x="319" y="72.5" width="57" height="60" as="geometry" />
        </mxCell>
        <mxCell id="Z2LzsEI6v00rcgcjW4Fa-45" value="" style="verticalLabelPosition=bottom;shadow=0;dashed=0;align=center;html=1;verticalAlign=top;shape=mxgraph.electrical.transistors.npn_transistor_1;flipH=1;" parent="1" vertex="1">
          <mxGeometry x="319" y="192.5" width="57" height="60" as="geometry" />
        </mxCell>
        <mxCell id="Z2LzsEI6v00rcgcjW4Fa-46" value="" style="verticalLabelPosition=bottom;shadow=0;dashed=0;align=center;html=1;verticalAlign=top;shape=mxgraph.electrical.logic_gates.logic_gate;operation=and;flipH=1;" parent="1" vertex="1">
          <mxGeometry x="399" y="202.5" width="66.67" height="40" as="geometry" />
        </mxCell>
        <mxCell id="Z2LzsEI6v00rcgcjW4Fa-47" value="" style="verticalLabelPosition=bottom;shadow=0;dashed=0;align=center;html=1;verticalAlign=top;shape=mxgraph.electrical.logic_gates.logic_gate;operation=and;flipH=1;" parent="1" vertex="1">
          <mxGeometry x="399" y="82.5" width="66.67" height="40" as="geometry" />
        </mxCell>
        <mxCell id="Z2LzsEI6v00rcgcjW4Fa-48" value="" style="endArrow=none;html=1;rounded=0;entryX=1;entryY=0.5;entryDx=0;entryDy=0;entryPerimeter=0;exitX=0;exitY=0.5;exitDx=0;exitDy=0;exitPerimeter=0;" parent="1" source="Z2LzsEI6v00rcgcjW4Fa-44" target="Z2LzsEI6v00rcgcjW4Fa-47" edge="1">
          <mxGeometry width="50" height="50" relative="1" as="geometry">
            <mxPoint x="369" y="192.5" as="sourcePoint" />
            <mxPoint x="419" y="142.5" as="targetPoint" />
          </mxGeometry>
        </mxCell>
        <mxCell id="Z2LzsEI6v00rcgcjW4Fa-49" value="" style="endArrow=none;html=1;rounded=0;entryX=1;entryY=0.5;entryDx=0;entryDy=0;entryPerimeter=0;exitX=0;exitY=0.5;exitDx=0;exitDy=0;exitPerimeter=0;" parent="1" source="Z2LzsEI6v00rcgcjW4Fa-45" target="Z2LzsEI6v00rcgcjW4Fa-46" edge="1">
          <mxGeometry width="50" height="50" relative="1" as="geometry">
            <mxPoint x="385" y="112.5" as="sourcePoint" />
            <mxPoint x="409" y="112.5" as="targetPoint" />
          </mxGeometry>
        </mxCell>
        <mxCell id="Z2LzsEI6v00rcgcjW4Fa-50" value="" style="verticalLabelPosition=bottom;shadow=0;dashed=0;align=center;html=1;verticalAlign=top;shape=mxgraph.electrical.logic_gates.inverting_contact;" parent="1" vertex="1">
          <mxGeometry x="465.66999999999996" y="207.5" width="10" height="10" as="geometry" />
        </mxCell>
        <mxCell id="Z2LzsEI6v00rcgcjW4Fa-52" value="" style="endArrow=none;html=1;rounded=0;entryX=0;entryY=0.75;entryDx=0;entryDy=0;entryPerimeter=0;" parent="1" target="Z2LzsEI6v00rcgcjW4Fa-47" edge="1">
          <mxGeometry width="50" height="50" relative="1" as="geometry">
            <mxPoint x="489" y="302.5" as="sourcePoint" />
            <mxPoint x="499" y="82.5" as="targetPoint" />
            <Array as="points">
              <mxPoint x="489" y="112.5" />
            </Array>
          </mxGeometry>
        </mxCell>
        <mxCell id="Z2LzsEI6v00rcgcjW4Fa-53" value="" style="endArrow=none;html=1;rounded=0;entryX=0;entryY=0.25;entryDx=0;entryDy=0;entryPerimeter=0;" parent="1" target="Z2LzsEI6v00rcgcjW4Fa-47" edge="1">
          <mxGeometry width="50" height="50" relative="1" as="geometry">
            <mxPoint x="509" y="212.5" as="sourcePoint" />
            <mxPoint x="449" y="142.5" as="targetPoint" />
            <Array as="points">
              <mxPoint x="509" y="92.5" />
            </Array>
          </mxGeometry>
        </mxCell>
        <mxCell id="Z2LzsEI6v00rcgcjW4Fa-55" value="" style="endArrow=none;html=1;rounded=0;exitX=0.9;exitY=0.5;exitDx=0;exitDy=0;exitPerimeter=0;entryX=0;entryY=0.5;entryDx=0;entryDy=0;" parent="1" source="Z2LzsEI6v00rcgcjW4Fa-50" target="Z2LzsEI6v00rcgcjW4Fa-15" edge="1">
          <mxGeometry width="50" height="50" relative="1" as="geometry">
            <mxPoint x="449" y="292.5" as="sourcePoint" />
            <mxPoint x="499" y="242.5" as="targetPoint" />
          </mxGeometry>
        </mxCell>
        <mxCell id="Z2LzsEI6v00rcgcjW4Fa-56" value="" style="endArrow=none;html=1;rounded=0;entryX=0;entryY=0.75;entryDx=0;entryDy=0;entryPerimeter=0;" parent="1" target="Z2LzsEI6v00rcgcjW4Fa-46" edge="1">
          <mxGeometry width="50" height="50" relative="1" as="geometry">
            <mxPoint x="489" y="232.5" as="sourcePoint" />
            <mxPoint x="469" y="252.5" as="targetPoint" />
          </mxGeometry>
        </mxCell>
        <mxCell id="Z2LzsEI6v00rcgcjW4Fa-62" value="" style="endArrow=none;html=1;rounded=0;entryX=0;entryY=0.5;entryDx=0;entryDy=0;entryPerimeter=0;" parent="1" target="Z2LzsEI6v00rcgcjW4Fa-5" edge="1">
          <mxGeometry width="50" height="50" relative="1" as="geometry">
            <mxPoint x="299" y="282.5" as="sourcePoint" />
            <mxPoint x="269" y="342.5" as="targetPoint" />
          </mxGeometry>
        </mxCell>
        <mxCell id="Z2LzsEI6v00rcgcjW4Fa-63" value="" style="pointerEvents=1;verticalLabelPosition=bottom;shadow=0;dashed=0;align=center;html=1;verticalAlign=top;shape=mxgraph.electrical.signal_sources.signal_ground;" parent="1" vertex="1">
          <mxGeometry x="274" y="360" width="50" height="30" as="geometry" />
        </mxCell>
        <mxCell id="Z2LzsEI6v00rcgcjW4Fa-64" value="" style="verticalLabelPosition=bottom;shadow=0;dashed=0;align=center;html=1;verticalAlign=top;strokeWidth=1;shape=ellipse;perimeter=ellipsePerimeter;" parent="1" vertex="1">
          <mxGeometry x="291.49999999999994" y="12.5" width="15" height="15" as="geometry" />
        </mxCell>
        <mxCell id="Z2LzsEI6v00rcgcjW4Fa-68" value="" style="endArrow=none;html=1;rounded=0;entryX=0.7;entryY=1;entryDx=0;entryDy=0;entryPerimeter=0;" parent="1" target="Z2LzsEI6v00rcgcjW4Fa-11" edge="1">
          <mxGeometry width="50" height="50" relative="1" as="geometry">
            <mxPoint x="299" y="282.5" as="sourcePoint" />
            <mxPoint x="259" y="272.5" as="targetPoint" />
          </mxGeometry>
        </mxCell>
        <mxCell id="Z2LzsEI6v00rcgcjW4Fa-69" value="" style="endArrow=none;html=1;rounded=0;exitX=0.7;exitY=1;exitDx=0;exitDy=0;exitPerimeter=0;" parent="1" source="Z2LzsEI6v00rcgcjW4Fa-45" edge="1">
          <mxGeometry width="50" height="50" relative="1" as="geometry">
            <mxPoint x="309" y="292.5" as="sourcePoint" />
            <mxPoint x="299" y="282.5" as="targetPoint" />
          </mxGeometry>
        </mxCell>
        <mxCell id="Z2LzsEI6v00rcgcjW4Fa-70" value="" style="endArrow=none;html=1;rounded=0;entryX=0.7;entryY=1;entryDx=0;entryDy=0;entryPerimeter=0;exitX=0.7;exitY=0;exitDx=0;exitDy=0;exitPerimeter=0;" parent="1" source="Z2LzsEI6v00rcgcjW4Fa-45" target="Z2LzsEI6v00rcgcjW4Fa-44" edge="1">
          <mxGeometry width="50" height="50" relative="1" as="geometry">
            <mxPoint x="289" y="202.5" as="sourcePoint" />
            <mxPoint x="339" y="152.5" as="targetPoint" />
          </mxGeometry>
        </mxCell>
        <mxCell id="Z2LzsEI6v00rcgcjW4Fa-71" value="" style="endArrow=none;html=1;rounded=0;entryX=0.7;entryY=1;entryDx=0;entryDy=0;entryPerimeter=0;exitX=0.7;exitY=0;exitDx=0;exitDy=0;exitPerimeter=0;" parent="1" source="Z2LzsEI6v00rcgcjW4Fa-11" target="Z2LzsEI6v00rcgcjW4Fa-4" edge="1">
          <mxGeometry width="50" height="50" relative="1" as="geometry">
            <mxPoint x="279" y="192.5" as="sourcePoint" />
            <mxPoint x="279" y="132.5" as="targetPoint" />
          </mxGeometry>
        </mxCell>
        <mxCell id="Z2LzsEI6v00rcgcjW4Fa-72" value="" style="endArrow=none;html=1;rounded=0;exitX=0.5;exitY=1;exitDx=0;exitDy=0;" parent="1" source="Z2LzsEI6v00rcgcjW4Fa-78" edge="1">
          <mxGeometry width="50" height="50" relative="1" as="geometry">
            <mxPoint x="209" y="32.5" as="sourcePoint" />
            <mxPoint x="261" y="162.5" as="targetPoint" />
            <Array as="points">
              <mxPoint x="207" y="162.5" />
            </Array>
          </mxGeometry>
        </mxCell>
        <mxCell id="Z2LzsEI6v00rcgcjW4Fa-73" value="" style="endArrow=none;html=1;rounded=0;entryX=0.7;entryY=0;entryDx=0;entryDy=0;entryPerimeter=0;" parent="1" target="Z2LzsEI6v00rcgcjW4Fa-4" edge="1">
          <mxGeometry width="50" height="50" relative="1" as="geometry">
            <mxPoint x="299" y="42.5" as="sourcePoint" />
            <mxPoint x="319" y="52.5" as="targetPoint" />
          </mxGeometry>
        </mxCell>
        <mxCell id="Z2LzsEI6v00rcgcjW4Fa-74" value="" style="endArrow=none;html=1;rounded=0;entryX=0.7;entryY=0;entryDx=0;entryDy=0;entryPerimeter=0;" parent="1" target="Z2LzsEI6v00rcgcjW4Fa-44" edge="1">
          <mxGeometry width="50" height="50" relative="1" as="geometry">
            <mxPoint x="299" y="42.5" as="sourcePoint" />
            <mxPoint x="271" y="82.5" as="targetPoint" />
          </mxGeometry>
        </mxCell>
        <mxCell id="Z2LzsEI6v00rcgcjW4Fa-75" value="" style="endArrow=none;html=1;rounded=0;entryX=0.5;entryY=1;entryDx=0;entryDy=0;" parent="1" target="Z2LzsEI6v00rcgcjW4Fa-64" edge="1">
          <mxGeometry width="50" height="50" relative="1" as="geometry">
            <mxPoint x="299" y="42.5" as="sourcePoint" />
            <mxPoint x="329" y="42.5" as="targetPoint" />
          </mxGeometry>
        </mxCell>
        <mxCell id="Z2LzsEI6v00rcgcjW4Fa-77" value="Vcc" style="text;html=1;strokeColor=none;fillColor=none;align=center;verticalAlign=middle;whiteSpace=wrap;rounded=0;fontSize=14;" parent="1" vertex="1">
          <mxGeometry x="306.5" y="10" width="35" height="20" as="geometry" />
        </mxCell>
        <mxCell id="Z2LzsEI6v00rcgcjW4Fa-78" value="" style="verticalLabelPosition=bottom;shadow=0;dashed=0;align=center;html=1;verticalAlign=top;strokeWidth=1;shape=ellipse;perimeter=ellipsePerimeter;" parent="1" vertex="1">
          <mxGeometry x="199" y="12.5" width="15" height="15" as="geometry" />
        </mxCell>
        <mxCell id="Z2LzsEI6v00rcgcjW4Fa-79" value="Out1" style="text;html=1;strokeColor=none;fillColor=none;align=center;verticalAlign=middle;whiteSpace=wrap;rounded=0;fontSize=14;" parent="1" vertex="1">
          <mxGeometry x="214" y="10" width="35" height="20" as="geometry" />
        </mxCell>
        <mxCell id="Z2LzsEI6v00rcgcjW4Fa-80" value="" style="verticalLabelPosition=bottom;shadow=0;dashed=0;align=center;html=1;verticalAlign=top;strokeWidth=1;shape=ellipse;perimeter=ellipsePerimeter;" parent="1" vertex="1">
          <mxGeometry x="383.99999999999994" y="12.5" width="15" height="15" as="geometry" />
        </mxCell>
        <mxCell id="Z2LzsEI6v00rcgcjW4Fa-81" value="Out2" style="text;html=1;strokeColor=none;fillColor=none;align=center;verticalAlign=middle;whiteSpace=wrap;rounded=0;fontSize=14;" parent="1" vertex="1">
          <mxGeometry x="399" y="10" width="35" height="20" as="geometry" />
        </mxCell>
        <mxCell id="Z2LzsEI6v00rcgcjW4Fa-82" value="" style="endArrow=none;html=1;rounded=0;exitX=0.5;exitY=1;exitDx=0;exitDy=0;" parent="1" source="Z2LzsEI6v00rcgcjW4Fa-80" edge="1">
          <mxGeometry width="50" height="50" relative="1" as="geometry">
            <mxPoint x="391" y="52.5" as="sourcePoint" />
            <mxPoint x="337" y="162.5" as="targetPoint" />
            <Array as="points">
              <mxPoint x="392" y="162.5" />
            </Array>
          </mxGeometry>
        </mxCell>
      </root>
    </mxGraphModel>
  </diagram>
</mxfile>
